<?xml version="1.0" encoding="UTF-8"?>
<svg width="205px" height="340px" viewBox="0 0 205 340" version="1.1" xmlns="http://www.w3.org/2000/svg" xmlns:xlink="http://www.w3.org/1999/xlink">
    <!-- Generator: Sketch 63.1 (92452) - https://sketch.com -->
    <title>np_zombie_1394638_000000</title>
    <desc>Created with Sketch.</desc>
    <g id="Page-1" stroke="none" stroke-width="1" fill="none" fill-rule="evenodd">
        <g id="np_zombie_1394638_000000" fill="#000000" fill-rule="nonzero">
            <path d="M1.95002713,164.262368 L32.8307098,180.757837 L32.8307098,216.823018 L32.8451526,319.535466 C32.8451526,320.848771 33.5529057,322.075475 34.693941,322.724905 L63.7690969,339.49488 C64.3468433,339.826814 64.9823458,340 65.6178853,340 C66.2533878,340 66.8889274,339.826818 67.4666737,339.49488 L96.5418297,322.724905 L125.660247,305.911704 C126.801282,305.247828 127.509036,304.035569 127.509036,302.707819 L127.509036,201.986738 C127.826794,201.553773 128.043446,201.034244 128.144575,200.485824 L134.615335,164.478278 C134.889761,162.905208 134.13868,161.332139 132.723211,160.567217 L127.508888,157.767443 L127.508888,144.89412 L166.925057,178.145155 C167.603895,178.72243 168.456075,179.011086 169.308256,179.011086 C169.943796,179.011086 170.579298,178.852338 171.142587,178.520412 L203.135131,160.220889 C204.305081,159.542605 205.027255,158.287009 204.999212,156.93044 L204.348417,126.536778 C204.319528,125.483237 203.842884,124.473034 203.034039,123.794712 L142.068392,72.447725 L142.068392,37.2341398 C142.068392,35.9208347 141.360639,34.6941301 140.219604,34.0302547 L82.0271397,0.490674443 C81.4638508,0.158740442 80.8138538,0 80.1783513,0 C79.5428118,0 78.9073092,0.158751526 78.3295629,0.490674443 L20.1370986,34.0302547 C18.9960634,34.6941301 18.2883102,35.906389 18.2883102,37.2341398 L18.2883102,105.727578 C18.2883102,107.040883 18.9960634,108.267587 20.1370986,108.931463 L26.8533772,112.813706 L8.55332993,121.732742 C7.49892892,122.252271 6.74787711,123.233657 6.53119911,124.402652 L0.0604396462,160.366972 C-0.228433544,161.925633 0.537094276,163.498702 1.95256366,164.263624 L1.95002713,164.262368 Z M63.7698142,333.100041 L38.3922351,318.46626 L38.3922351,220.013639 L63.7698142,234.691016 L63.7698142,333.100041 Z M63.7698142,230.417149 L38.3922351,215.739773 L38.3922351,181.622733 L63.7698142,195.203195 L63.7698142,230.417149 Z M92.8449702,318.465891 L67.4673911,333.099671 L67.4673911,234.687691 L92.8449702,220.010314 L92.8449702,318.465891 Z M93.7693644,215.206648 L67.4673911,230.417888 L67.4673911,197.181262 L97.3079454,213.157276 L93.7693644,215.206648 Z M121.963388,301.651951 L96.542547,316.329327 L96.542547,217.876706 L121.963388,203.213739 L121.963388,301.651951 Z M128.50625,167.073927 L122.84452,198.564136 L121.717906,199.083664 L121.703463,199.098095 L121.68902,199.098095 L101.713601,208.853949 L107.332069,177.363741 L128.50625,167.073927 Z M125.010894,135.540123 L124.996447,135.525692 L123.162116,133.995923 L121.602183,117.514863 L128.54956,113.502941 L166.837968,145.78711 L167.372379,171.288068 L125.010894,135.540123 Z M121.963277,137.820369 L121.963277,156.899443 L86.2875765,137.863964 L118.078233,119.550033 L119.537038,135.093045 C119.537038,135.136338 119.565923,135.165203 119.565923,135.194065 C119.594812,135.396113 119.638141,135.598176 119.739247,135.77134 C119.768136,135.814637 119.797022,135.843498 119.811468,135.872364 C119.912571,136.031116 120.02812,136.189863 120.172559,136.319738 C120.187002,136.334169 120.187002,136.3486 120.201444,136.3486 L121.963277,137.820369 Z M199.438604,155.975803 L171.100006,172.182727 L170.551137,145.959853 L198.875315,129.781746 L199.438604,155.975803 Z M139.452815,107.166978 C139.553918,107.094816 139.655025,107.008227 139.741685,106.907203 C139.813906,106.820613 139.87168,106.719589 139.943898,106.618565 C140.001672,106.517541 140.059447,106.416521 140.102779,106.301066 C140.146111,106.185611 140.160554,106.055721 140.174996,105.925846 C140.189439,105.853688 140.218328,105.781529 140.218328,105.694936 L140.218328,78.1157888 L197.445725,126.333484 L168.876028,142.641639 L131.957942,111.51202 L139.295413,107.283597 C139.36763,107.283597 139.396516,107.225869 139.454294,107.168142 L139.452815,107.166978 Z M136.520748,74.1612617 L136.520748,104.655786 L127.912419,109.605757 L127.840198,109.649053 L118.740831,114.902347 L82.039423,136.045203 L82.0249803,71.8670104 L136.519868,40.4200286 L136.520748,74.1612617 Z M80.1770719,5.8119115 L134.671959,37.215667 L80.1770719,68.6626488 L25.6821845,37.2300758 L80.1770719,5.8119115 Z M23.8333961,104.656156 L23.8333961,40.41885 L78.3282835,71.8658319 L78.3282835,136.058803 L68.4343074,130.372506 L66.5421834,129.290111 L37.4670275,112.47691 L37.4525847,112.47691 L37.438142,112.462479 L35.6471097,111.466684 L23.8333961,104.656156 Z M34.666187,115.147965 L34.9550602,115.306717 C35.0994949,115.566489 35.2872615,115.797391 35.5472641,115.956147 L64.62242,134.183625 C64.6513091,134.198056 64.6946411,134.198056 64.7235265,134.212487 C64.9835105,134.356808 65.2723948,134.457828 65.6045851,134.457828 C65.8934583,134.457828 66.167874,134.371239 66.4134301,134.255784 C66.4856474,134.226918 66.5289793,134.169194 66.6011967,134.125898 C66.7456352,134.024874 66.8756272,133.92385 66.9911801,133.793964 L79.2394034,140.836533 L79.2538498,140.836533 C79.2827353,140.850964 79.3116208,140.850964 79.3405099,140.865399 C79.5860512,140.995285 79.8604632,141.081874 80.1638124,141.081874 C80.4671616,141.081874 80.7415588,140.995285 80.9871149,140.865399 C81.0160003,140.850964 81.0448858,140.850964 81.073775,140.836533 L81.0882177,140.836533 L82.5036871,140.013902 L122.918202,161.589391 L122.932648,161.589391 L126.890165,163.710881 L105.715621,174.000968 L14.2301753,125.107168 L34.666187,115.147965 Z M11.5419112,127.862422 L103.64855,177.103511 L97.8999274,209.286449 L66.4993654,192.473248 L37.4242095,176.915827 L5.76370787,160.016173 L11.5419112,127.862422 Z" id="Shape"></path>
        </g>
    </g>
</svg>