<?xml version="1.0" encoding="UTF-8"?>
<svg width="22px" height="22px" viewBox="0 0 22 22" version="1.1" xmlns="http://www.w3.org/2000/svg" xmlns:xlink="http://www.w3.org/1999/xlink">
    <!-- Generator: Sketch 63.1 (92452) - https://sketch.com -->
    <title>np_close_404311_F2F2F2</title>
    <desc>Created with Sketch.</desc>
    <g id="Page-1" stroke="none" stroke-width="1" fill="none" fill-rule="evenodd">
        <g id="np_close_404311_F2F2F2" fill="#F2F2F2" fill-rule="nonzero">
            <path d="M13.7574631,10.999351 L21.5132743,3.24483776 C22.1622419,2.59587021 22.1622419,1.49314454 21.5132743,0.844176991 L21.155823,0.486725664 C20.5068555,-0.162241888 19.4041298,-0.162241888 18.7551622,0.486725664 L10.999351,8.24123894 L3.24483776,0.486725664 C2.59587021,-0.162241888 1.49314454,-0.162241888 0.844176991,0.486725664 L0.486725664,0.844176991 C-0.162241888,1.49314454 -0.162241888,2.59587021 0.486725664,3.24483776 L8.24123894,10.999351 L0.486725664,18.7551622 C-0.162241888,19.4041298 -0.162241888,20.5068555 0.486725664,21.155823 L0.844176991,21.5132743 C1.49314454,22.1622419 2.59587021,22.1622419 3.24483776,21.5132743 L10.999351,13.7587611 L18.7538643,21.5132743 C19.4028319,22.1622419 20.5055575,22.1622419 21.1545251,21.5132743 L21.5119764,21.155823 C22.160944,20.5068555 22.160944,19.4041298 21.5119764,18.7551622 L13.7574631,10.999351 Z" id="Path"></path>
        </g>
    </g>
</svg>