<?xml version="1.0" encoding="UTF-8" standalone="no"?>
<svg
   xmlns:dc="http://purl.org/dc/elements/1.1/"
   xmlns:cc="http://creativecommons.org/ns#"
   xmlns:rdf="http://www.w3.org/1999/02/22-rdf-syntax-ns#"
   xmlns:svg="http://www.w3.org/2000/svg"
   xmlns="http://www.w3.org/2000/svg"
   xmlns:sodipodi="http://sodipodi.sourceforge.net/DTD/sodipodi-0.dtd"
   xmlns:inkscape="http://www.inkscape.org/namespaces/inkscape"
   width="23px"
   height="26px"
   viewBox="0 0 23 26"
   version="1.1"
   id="svg9"
   sodipodi:docname="date.svg"
   inkscape:version="0.92.3 (2405546, 2018-03-11)">
  <metadata
     id="metadata15">
    <rdf:RDF>
      <cc:Work
         rdf:about="">
        <dc:format>image/svg+xml</dc:format>
        <dc:type
           rdf:resource="http://purl.org/dc/dcmitype/StillImage" />
      </cc:Work>
    </rdf:RDF>
  </metadata>
  <defs
     id="defs13" />
  <sodipodi:namedview
     pagecolor="#ffffff"
     bordercolor="#666666"
     borderopacity="1"
     objecttolerance="10"
     gridtolerance="10"
     guidetolerance="10"
     inkscape:pageopacity="0"
     inkscape:pageshadow="2"
     inkscape:window-width="640"
     inkscape:window-height="480"
     id="namedview11"
     showgrid="false"
     inkscape:zoom="9.0769231"
     inkscape:cx="11.5"
     inkscape:cy="13"
     inkscape:window-x="67"
     inkscape:window-y="27"
     inkscape:window-maximized="0"
     inkscape:current-layer="svg9" />
  <!-- Generator: Sketch 63.1 (92452) - https://sketch.com -->
  <title
     id="title2">np_date_2776787_000000</title>
  <desc
     id="desc4">Created with Sketch.</desc>
  <g
     id="Page-1"
     stroke="none"
     stroke-width="1"
     fill="none"
     fill-rule="evenodd"
     style="fill:#000000">
    <g
       id="np_date_2776787_000000"
       fill="#FFFFFF"
       fill-rule="nonzero"
       style="fill:#000000">
      <path
         d="M0,9.9430783 L0,5.7487733 C0,4.32595957 1.1209461,3.1642168 2.4937952,3.1642168 L4.20061173,3.1642168 L4.20061173,5.30444678 C4.20061173,6.24221734 4.93673646,7.00632896 5.84272929,7.00632896 L7.1265914,7.00632896 C8.02912297,7.00632896 8.76870895,6.24341309 8.76870895,5.30444678 L8.76870895,3.1642168 L14.2301077,3.1642168 L14.2301077,5.30444678 C14.2301077,6.24221734 14.9696937,7.00632896 15.8722253,7.00632896 L17.1560874,7.00632896 C18.0609265,7.00632896 18.7982049,6.24341309 18.7982049,5.30444678 L18.7982049,3.1642168 L20.5050215,3.1642168 C21.8778706,3.1642168 22.9988167,4.32595957 22.9988167,5.7487733 L22.9988167,9.9430783 L0,9.9430783 Z M5.84272929,0 L7.1265914,0 C7.54954583,0 7.89623416,0.359305996 7.89623416,0.797653793 L7.89623416,5.30438546 C7.89623416,5.74273326 7.54954583,6.10203925 7.1265914,6.10203925 L5.84272929,6.10203925 C5.41631359,6.10203925 5.07077902,5.74273326 5.07077902,5.30438546 L5.07077902,0.797653793 C5.07077902,0.359305996 5.41746735,0 5.84272929,0 L5.84272929,0 Z M15.8709236,0 L17.1547857,0 C17.5812014,0 17.926736,0.359305996 17.926736,0.797653793 L17.926736,5.30438546 C17.926736,5.74273326 17.5800476,6.10203925 17.1547857,6.10203925 L15.8709236,6.10203925 C15.4479692,6.10203925 15.1012808,5.74273326 15.1012808,5.30438546 L15.1012808,0.797653793 C15.1012808,0.359305996 15.4479692,0 15.8709236,0 Z M0,23.4154435 L0,10.2843255 L1.30815011,10.2843255 L1.30815011,23.4154435 C1.30815011,24.089721 1.84319619,24.6454357 2.49494895,24.6454357 L20.5050511,24.6454357 C21.1556501,24.6454357 21.6918499,24.0909167 21.6918499,23.4154435 L21.6918499,10.2843255 L23,10.2843255 L23,23.4154435 C23,24.8382572 21.8790539,26 20.5062048,26 L2.4961027,26 C1.12325361,26 0.00230750828,24.8382572 0.00230750828,23.4154435 L0,23.4154435 Z"
         id="Shape"
         style="fill:#000000" />
    </g>
  </g>
</svg>
