<?xml version="1.0" encoding="UTF-8"?>
<svg width="52px" height="52px" viewBox="0 0 52 52" version="1.1" xmlns="http://www.w3.org/2000/svg" xmlns:xlink="http://www.w3.org/1999/xlink">
    <!-- Generator: Sketch 63.1 (92452) - https://sketch.com -->
    <title>np_email_1198074_000000</title>
    <desc>Created with Sketch.</desc>
    <g id="Page-1" stroke="none" stroke-width="1" fill="none" fill-rule="evenodd">
        <g id="np_email_1198074_000000" fill="#FFD903" fill-rule="nonzero">
            <path d="M26,0 C19.10376,0 12.4904,2.74014 7.6154,7.6154 C2.7404,12.49066 0,19.10428 0,26 C0,32.89572 2.74014,39.5096 7.6154,44.3846 C12.49066,49.2596 19.10428,52 26,52 C32.89572,52 39.5096,49.25986 44.3846,44.3846 C49.2596,39.50934 52,32.89572 52,26 C52,19.10428 49.25986,12.4904 44.3846,7.6154 C39.50934,2.7404 32.89572,0 26,0 Z M37,17 L25.5,27 L14,17 L37,17 Z M38.9967041,33.8420467 C39.0210753,34.1574272 38.9093731,34.4644772 38.6920622,34.6879234 C38.4747513,34.9093164 38.1741753,35.0200129 37.8675213,34.9928614 L14.1300611,34.9928614 C13.8355733,35.0283685 13.5431236,34.9302013 13.3257971,34.7255173 C13.1084862,34.5187427 12.9886603,34.2263378 13.0008472,33.923485 L13.0008472,18.2255743 L13.0008472,18 L15.6004464,20.2139299 L25.2719953,28.501597 C25.4608718,28.7083716 25.7248923,28.8253347 26.0010789,28.8253347 C26.2772655,28.8253347 26.5433553,28.7083716 26.7321902,28.501597 L38.6336752,18.2986768 L38.9972136,18.0104478 L38.9972136,18.3258283 L38.9967041,33.8420467 Z" id="Shape"></path>
        </g>
    </g>
</svg>