<?xml version="1.0" encoding="UTF-8"?>
<svg width="32px" height="26px" viewBox="0 0 32 26" version="1.1" xmlns="http://www.w3.org/2000/svg" xmlns:xlink="http://www.w3.org/1999/xlink">
    <!-- Generator: Sketch 63.1 (92452) - https://sketch.com -->
    <title>np_filter_787737_000000</title>
    <desc>Created with Sketch.</desc>
    <g id="Page-1" stroke="none" stroke-width="1" fill="none" fill-rule="evenodd">
        <g id="np_filter_787737_000000" fill="#010818" fill-rule="nonzero">
            <path d="M32,3.95473139 C32,5.08441505 31.1767172,6 30.1609195,6 L1.83908046,6 C0.823282759,6 0,5.08441505 0,3.95473139 L0,2.04526861 C0,0.915584947 0.823282759,0 1.83908046,0 L30.1609195,0 C31.1767172,0 32,0.915584947 32,2.04526861 L32,3.95473139 Z" id="Path"></path>
            <path d="M28,13.9541874 C28,15.0841715 27.1360947,16 26.0701754,16 L7.92982456,16 C6.86390526,16 6,15.0841715 6,13.9541874 L6,12.0458126 C6,10.9158285 6.86390526,10 7.92982456,10 L26.0701754,10 C27.1360947,10 28,10.9158285 28,12.0458126 L28,13.9541874 Z" id="Path"></path>
            <path d="M21,23.9547314 C21,25.0844151 20.171,26 19.1481481,26 L12.8518519,26 C11.829,26 11,25.0844151 11,23.9547314 L11,22.0452686 C11,20.9155849 11.829,20 12.8518519,20 L19.1481481,20 C20.171,20 21,20.9155849 21,22.0452686 L21,23.9547314 Z" id="Path"></path>
        </g>
    </g>
</svg>