<?xml version="1.0" encoding="UTF-8"?>
<svg width="127px" height="180px" viewBox="0 0 127 180" version="1.1" xmlns="http://www.w3.org/2000/svg" xmlns:xlink="http://www.w3.org/1999/xlink">
    <!-- Generator: Sketch 63.1 (92452) - https://sketch.com -->
    <title>np_game-boy_1110023_000000</title>
    <desc>Created with Sketch.</desc>
    <g id="Page-1" stroke="none" stroke-width="1" fill="none" fill-rule="evenodd">
        <g id="mobile-3" transform="translate(-179.000000, -971.000000)" fill="#000000" fill-rule="nonzero">
            <g id="Article-1" transform="translate(80.000000, 881.000000)">
                <g id="np_game-boy_1110023_000000" transform="translate(99.000000, 90.000000)">
                    <path d="M116.520323,3.61779324 C114.303365,1.40468738 111.088212,0 107.66859,0 L12.4758248,0 C5.63658053,0 0,5.62678549 0,12.4541448 L0,162.923646 C0,166.141248 1.21063317,169.154737 3.41962212,171.359806 L3.62401055,171.56384 C3.82839898,171.767873 4.22932714,172.168104 4.83464372,172.568336 C7.64890901,174.977519 14.0953153,180 19.126539,180 L100.837637,180 C113.117043,180 127,166.141168 127,153.883101 L126.984278,19.0837388 C126.77989,12.2563796 118.729852,5.22490668 116.520943,3.61610569 L116.520323,3.61779324 Z M112.290875,149.269731 C112.290875,159.314693 104.240917,167.350662 94.1784701,167.350662 L12.4754223,167.350662 C11.4691775,167.350662 10.4629328,166.95043 9.66115699,166.346165 C9.45676856,166.142132 9.26022883,165.945934 9.0558404,165.741901 L8.85145197,165.741901 C8.24613539,164.941438 7.84520723,163.936942 7.84520723,162.728412 L7.84520723,12.4537831 C7.84520723,10.0445996 9.85769671,7.83149377 12.475543,7.83149377 L107.668308,7.83149377 C109.075481,7.83149377 110.286154,8.43575845 111.08793,9.44025458 C111.693247,10.2407175 112.094175,11.2452136 112.094175,12.453743 L112.094175,149.270133 L112.290875,149.269731 Z" id="Shape"></path>
                    <path d="M98.5949068,15 L19.6011568,15 C16.6013942,15 14,17.4115612 14,20.6323387 L14,81.9670751 C14,85.1878526 16.6013942,88 19.9995253,88 L88.7980819,88 C97.7973699,88 105,80.7572726 105,71.7078852 L105,21.4335111 C105,17.8199902 102.000237,15 98.5943068,15 L98.5949068,15 Z M24.0068083,41.347794 C24.0068083,41.7484204 23.8037043,41.952655 23.6083998,42.1490469 C23.2099913,42.5496733 22.8115828,42.7539079 22.2100704,42.7539079 C22.0069665,42.7539079 21.608558,42.7539079 21.4132535,42.5496733 C21.2101495,42.5496733 21.014845,42.3454387 20.811741,42.1490469 C20.4133326,41.7484204 20.2102286,41.347794 20.2102286,40.7429329 C20.2102286,40.1380719 20.4133326,39.7374455 20.811741,39.336819 C21.014845,39.1325844 21.2101495,39.1325844 21.4132535,38.9361926 C21.6163574,38.9361926 22.0147659,38.731958 22.2100704,38.731958 C22.8115828,38.731958 23.2099913,38.9361926 23.6083998,39.336819 C23.8115037,39.5410536 24.0068083,39.7374455 24.0068083,40.1380719 C24.0068083,40.3423065 24.2099122,40.5386983 24.2099122,40.7429329 C24.0068083,40.9471676 24.0068083,41.347794 24.0068083,41.347794 Z M87.798201,74.9290649 C87.798201,75.3296914 87.5946571,75.533926 87.1962486,75.533926 L31.8026314,75.533926 L31.8026314,27.0654074 L87.798201,27.0654074 L87.798201,74.9290649 Z" id="Shape"></path>
                    <path d="M47,114 C47,110.7968 44.366927,108 41.133073,108 L35.866927,108 L35.866927,102.7968 C35.866927,99.5936 33.2338541,97 30,97 C26.7580492,97 24.133073,99.6016 24.133073,102.7968 L24.133073,108 L18.866927,108 C15.6249762,108 13,110.6016 13,114 C13,117.2032 15.633073,119.7968 18.866927,119.7968 L24.133073,119.7968 L24.133073,125 C24.133073,128.2032 26.7661459,131 30,131 C33.2419508,131 35.866927,128.3984 35.866927,125 L35.866927,119.7968 L41.133073,119.7968 C44.1693656,119.804612 47,117.203 47,114 Z" id="Path"></path>
                    <path d="M80,113 C76.7129224,113 74,115.705184 74,119 C74,122.287078 76.7051844,125 80,125 C83.2870776,125 86,122.294816 86,119 C86,115.705378 83.2872711,113 80,113 L80,113 Z" id="Path"></path>
                    <path d="M96,107 C92.7129224,107 90,109.705184 90,113 C90,116.287078 92.7051844,119 96,119 C99.2870776,119 102,116.294816 102,113 C102,109.705184 99.2948156,107 96,107 Z" id="Path"></path>
                    <path d="M50.7097721,141.295598 L43.4850195,144.232085 C41.4790353,145.068765 40.4760432,147.381921 41.2752273,149.481811 C41.8785873,151.163362 43.2812115,152 44.8876036,152 C45.2872358,152 45.8905957,152 46.2902279,151.786735 L53.5149805,148.850248 C55.5209647,148.013568 56.5239568,145.700412 55.7247727,143.387173 C54.9255083,141.500547 52.7157964,140.450686 50.7098122,141.295493 L50.7097721,141.295598 Z" id="Path"></path>
                    <path d="M71.7097721,141.287257 L64.4850195,144.168604 C62.4790353,144.989574 61.4760432,147.259294 62.2752273,149.529097 C62.8785873,151.179072 64.2812115,152 65.8876036,152 C66.2872358,152 66.8905957,152 67.2902279,151.79074 L74.5149805,148.909393 C76.5209647,148.088423 77.5239568,145.60936 76.7247727,143.5489 C76.1214127,141.488441 73.7157964,140.458211 71.7098122,141.287134 L71.7097721,141.287257 Z" id="Path"></path>
                </g>
            </g>
        </g>
    </g>
</svg>