<?xml version="1.0" encoding="UTF-8"?>
<svg width="25px" height="24px" viewBox="0 0 25 24" version="1.1" xmlns="http://www.w3.org/2000/svg" xmlns:xlink="http://www.w3.org/1999/xlink">
    <!-- Generator: Sketch 63.1 (92452) - https://sketch.com -->
    <title>np_like_837117_000000</title>
    <desc>Created with Sketch.</desc>
    <defs>
        <filter x="0.0%" y="0.0%" width="100.0%" height="100.0%" filterUnits="objectBoundingBox" id="filter-1">
            <feGaussianBlur stdDeviation="0" in="SourceGraphic"></feGaussianBlur>
        </filter>
    </defs>
    <g id="Page-1" stroke="none" stroke-width="1" fill="none" fill-rule="evenodd">
        <g id="np_like_837117_000000" fill="#FFFFFF" fill-rule="nonzero">
            <path d="M12.500025,24 L10.03225,21.5068809 C6.9365,18.740509 4.61225,16.6184368 2.92775,14.546373 C0.9297,12.0917199 0,9.86604451 0,7.54444399 C0,3.31393825 3.27925,0 7.46675,0 C9.28805,0 11.08875,0.672865094 12.5,1.84492987 C13.911125,0.672865094 15.712,0 17.53325,0 C21.72075,0 25,3.31393825 25,7.54444399 C25,9.86687798 24.0703,12.0916694 22.07025,14.546373 C20.3847,16.6182095 18.0615,18.7394987 14.96575,21.5068809 L12.500025,24 Z M7.466775,2.65905597 C4.710025,2.65905597 2.632775,4.75852336 2.632775,7.54270127 C2.632775,11.1655296 5.947275,14.3046911 11.806525,19.5416784 L11.8367975,19.5693042 L12.4998725,20.238204 L13.1639225,19.5673342 L13.194195,19.5397083 C19.053695,14.3029737 22.367945,11.1635596 22.367945,7.54073125 C22.367945,4.75566935 20.28982,2.65708594 17.533945,2.65708594 C16.031995,2.65708594 14.487945,3.38617256 13.505695,4.55922234 L12.499845,5.76088803 L11.495945,4.56119237 C10.512545,3.38715757 8.968695,2.65905597 7.466695,2.65905597 L7.466775,2.65905597 Z" id="Shape" filter="url(#filter-1)"></path>
        </g>
    </g>
</svg>