<?xml version="1.0" encoding="UTF-8"?>
<svg width="199px" height="198px" viewBox="0 0 199 198" version="1.1" xmlns="http://www.w3.org/2000/svg" xmlns:xlink="http://www.w3.org/1999/xlink">
    <!-- Generator: Sketch 63.1 (92452) - https://sketch.com -->
    <title>np_gaming-controller_1680937_000000</title>
    <desc>Created with Sketch.</desc>
    <g id="Page-1" stroke="none" stroke-width="1" fill="none" fill-rule="evenodd">
        <g id="mobile-2" transform="translate(-90.000000, -1059.000000)" fill="#000000" fill-rule="nonzero">
            <g id="Article-1" transform="translate(26.000000, 981.000000)">
                <g id="np_gaming-controller_1680937_000000" transform="translate(64.000000, 78.000000)">
                    <path d="M85.4716803,168.334356 C61.4535315,179.069242 40.6496634,203.46615 17.2435327,196.825283 C14.1670747,195.938415 9.57100918,190.312362 7.75488131,187.365359 C-12.3714971,154.634021 10.4143131,65.0982036 33.5711295,50.5110005 C50.9638275,39.5729631 65.946408,45.836379 75.7980002,57.7998721 C78.0033763,60.4973695 82.2379479,61.1626387 84.0170701,61.3196734 C84.0170701,54.4002118 88.9559131,49.3377334 95.4423552,48.0904424 C94.3026021,35.2677516 91.1150557,24.5976666 111.333948,19.9518979 C126.493492,16.4782137 116.087526,-0.381499725 125.881949,0.00659366573 C134.25853,0.320686799 128.911912,16.3027321 127.318222,19.249735 C118.62638,35.6106739 102.187529,22.178291 104.532412,43.8975675 C104.671407,45.2371164 104.828932,46.5950649 104.921589,48.0270609 C111.435785,49.1171753 116.736146,54.2720299 116.736146,61.0805738 C118.76546,60.6741045 121.47122,59.7872366 123.083579,57.810278 C137.242545,40.6272717 160.305187,39.9896728 173.983077,59.3068617 C193.312409,86.5679983 214.271891,174.221291 183.045451,196.16122 C182.591395,196.475313 182.109562,196.687807 181.609178,196.844842 C165.875096,201.316075 151.874117,192.059539 136.509618,181.906675 C129.133615,177.047349 121.442588,171.938753 113.38103,168.354151 L85.4716803,168.334356 Z M57.1528003,174.01575 C61.1373222,171.382817 80.1423793,158.874432 84.534676,158.874432 L114.333786,158.874432 L114.333786,158.89291 C118.772339,158.89291 137.666142,171.327507 141.715661,174.006558 C154.892314,182.699755 166.919891,190.644672 178.235108,187.919268 C180.079085,186.487343 181.672847,184.630526 183.01644,182.45025 C200.474135,154.108317 179.059672,71.0549121 160.202875,58.463753 C147.952789,50.2695667 137.417065,55.2211275 130.384788,63.775737 C125.353194,69.882118 116.337077,70.7874328 114.224429,70.7874328 L84.6554191,70.7874328 C67.5777444,70.4918102 68.1985394,56.9392862 53.9477711,54.4912944 C46.1827333,53.1517454 38.0561778,57.031757 32.6353113,64.708722 C16.1321744,87.9983459 -0.102908101,156.536206 15.835654,182.458764 C17.1977974,184.638992 18.7731033,186.495786 20.6169855,187.927782 C31.949519,190.643726 43.968082,182.699046 57.1530375,174.015072 L57.1528003,174.01575 Z M93.5038237,61.3456882 L107.22726,61.3456882 C107.22726,55.5349298 96.6172874,56.8560082 94.6806537,58.5096029 L93.5038237,61.3456882 Z" id="Shape"></path>
                    <path d="M142.982781,78 C169.618655,78 183.043995,110.353376 164.192909,129.198938 C145.341584,148.045454 113,134.604927 113,107.994221 C113,91.4405265 126.42534,78.0007158 142.982065,78.0007158 L142.982781,78 Z M157.461622,93.519074 C144.614348,80.6936888 122.555739,89.8279878 122.555739,107.994221 C122.555739,126.151149 144.614348,135.286641 157.461622,122.441451 C165.432813,114.472294 165.432813,101.516388 157.461622,93.5193126 L157.461622,93.519074 Z" id="Shape"></path>
                    <path d="M45.780174,89.6771098 C45.780174,83.4409634 55.2267338,83.4409634 55.2267338,89.6771098 L55.2267338,103.773266 L69.3228902,103.773266 C75.5590366,103.773266 75.5590366,113.219826 69.3228902,113.219826 L55.2267338,113.219826 L55.2267338,127.343614 C55.2267338,133.552129 45.780174,133.552129 45.780174,127.343614 L45.780174,113.219826 L31.6563864,113.219826 C25.4478712,113.219826 25.4478712,103.773266 31.6563864,103.773266 L45.780174,103.773266 L45.780174,89.6771098 Z" id="Path"></path>
                    <path d="M90.3885769,138.115468 C96.537141,138.115468 96.537141,147.888544 90.3885769,147.888544 C85.2450102,147.888544 78,149.176978 78,142.992477 C78,136.807977 85.2450102,138.115468 90.3885769,138.115468 Z" id="Path"></path>
                    <path d="M116.388579,138.11545 C122.53714,138.11545 122.53714,147.888544 116.388579,147.888544 C111.245015,147.888544 104,149.17698 104,142.992468 C103.990873,136.808054 111.245015,138.11545 116.388579,138.11545 Z" id="Path"></path>
                </g>
            </g>
        </g>
    </g>
</svg>