<?xml version="1.0" encoding="UTF-8"?>
<svg width="128px" height="148px" viewBox="0 0 128 148" version="1.1" xmlns="http://www.w3.org/2000/svg" xmlns:xlink="http://www.w3.org/1999/xlink">
    <!-- Generator: Sketch 63.1 (92452) - https://sketch.com -->
    <title>np_pacman_1838485_000000</title>
    <desc>Created with Sketch.</desc>
    <g id="Page-1" stroke="none" stroke-width="1" fill="none" fill-rule="evenodd">
        <g id="mobile-1" transform="translate(-119.000000, -111.000000)" fill="#FFFFFF" fill-rule="nonzero">
            <g id="np_pacman_1838485_000000" transform="translate(119.000000, 111.000000)">
                <path d="M74.237324,148 C33.3063422,148 0,114.806257 0,74 C0,33.1937433 33.3063422,0 74.237324,0 C93.1130683,0 112.438857,8.64813374 127.264203,23.7316892 C127.744199,24.2161371 128.008205,24.8799967 127.996193,25.5617852 C127.984194,26.2435889 127.6962,26.8954908 127.198202,27.3679964 L77.9559946,74 L127.20281,120.632004 C128.216807,121.594913 128.270797,123.191811 127.322809,124.214417 C112.886989,139.776281 94.5325584,148 74.2360261,148 L74.237324,148 Z M74.237324,5.10154763 C36.1264144,5.10154763 5.1179087,36.0109244 5.1179087,74 C5.1179087,111.989076 36.1264144,142.898452 74.237324,142.898452 C92.2605955,142.898452 108.658793,135.883059 121.817593,122.576471 L72.4801548,75.8541339 C71.9701611,75.3696859 71.6821635,74.6998399 71.6821635,74.0001531 C71.6821635,73.3004664 71.9701611,72.630559 72.4801548,72.1521435 L121.763834,25.4788008 C108.161901,12.5004759 90.9780463,5.10154763 74.23886,5.10154763 L74.237324,5.10154763 Z" id="Shape"></path>
            </g>
        </g>
    </g>
</svg>