<?xml version="1.0" encoding="UTF-8"?>
<svg width="30px" height="24px" viewBox="0 0 30 24" version="1.1" xmlns="http://www.w3.org/2000/svg" xmlns:xlink="http://www.w3.org/1999/xlink">
    <!-- Generator: Sketch 63.1 (92452) - https://sketch.com -->
    <title>Shape</title>
    <desc>Created with Sketch.</desc>
    <g id="Page-1" stroke="none" stroke-width="1" fill="none" fill-rule="evenodd">
        <path d="M28.125,0 C29.1606375,0 30,0.89532 30,2 C30,3.10468 29.1606375,4 28.125,4 L1.875,4 C0.8393625,4 0,3.10468 0,2 C0,0.89532 0.8393625,0 1.875,0 L28.125,0 Z M28.125,10 C29.1606375,10 30,10.89532 30,12 C30,13.10468 29.1606375,14 28.125,14 L1.875,14 C0.8393625,14 0,13.10468 0,12 C0,10.89532 0.8393625,10 1.875,10 L28.125,10 Z M28.125,20 C29.1606375,20 30,20.89532 30,22 C30,23.10468 29.1606375,24 28.125,24 L1.875,24 C0.8393625,24 0,23.10468 0,22 C0,20.89532 0.8393625,20 1.875,20 L28.125,20 Z" id="Shape" fill="#FFFFFF" fill-rule="nonzero"></path>
    </g>
</svg>