<?xml version="1.0" encoding="UTF-8"?>
<svg width="161px" height="162px" viewBox="0 0 161 162" version="1.1" xmlns="http://www.w3.org/2000/svg" xmlns:xlink="http://www.w3.org/1999/xlink">
    <!-- Generator: Sketch 63.1 (92452) - https://sketch.com -->
    <title>np_physical-education_1498816_000000</title>
    <desc>Created with Sketch.</desc>
    <g id="Page-1" stroke="none" stroke-width="1" fill="none" fill-rule="evenodd">
        <g id="mobile-1" transform="translate(-105.000000, -952.000000)" fill="#000000" fill-rule="nonzero">
            <g id="Article-1" transform="translate(26.000000, 862.000000)">
                <g id="np_physical-education_1498816_000000" transform="translate(79.000000, 90.000000)">
                    <path d="M123.665926,117.411377 C122.663772,117.411377 122,118.221502 122,119.031627 C122,119.841752 122.832963,120.651878 123.665926,120.651878 L126.334074,120.651878 L126.334074,124.37975 C126.334074,125.354427 127.167037,126 128,126 C128.832963,126 129.665926,125.189875 129.665926,124.37975 L129.665926,120.651878 L132.334074,120.651878 C133.336228,120.651878 134,119.841752 134,119.031627 C134,118.221502 133.167037,117.411377 132.334074,117.411377 L129.665926,117.411377 L129.665926,110.12025 L132.334074,110.12025 C133.336228,110.12025 134,109.310125 134,108.5 C134,107.689875 133.167037,106.87975 132.334074,106.87975 L129.665926,106.87975 L129.665926,99.5886231 L132.334074,99.5886231 C133.336228,99.5886231 134,98.7784979 134,97.9683727 C134,97.1582475 133.167037,96.3481224 132.334074,96.3481224 L129.665926,96.3481224 L129.665926,92.6202504 C129.665926,91.6455726 128.832963,91 128,91 C127.167037,91 126.334074,91.8101252 126.334074,92.6202504 L126.334074,96.3481224 L123.665926,96.3481224 C122.663772,96.3481224 122,97.1582475 122,97.9683727 C122,98.7784979 122.832963,99.5886231 123.665926,99.5886231 L126.334074,99.5886231 L126.334074,106.87975 L123.665926,106.87975 C122.663772,106.87975 122,107.689875 122,108.5 C122,109.310125 122.832963,110.12025 123.665926,110.12025 L126.334074,110.12025 L126.334074,117.411377 L123.665926,117.411377 Z" id="Path"></path>
                    <path d="M88.9357113,155.827203 L88.6160318,155.183823 L77.3834417,124.017596 C77.5464105,123.695906 77.7031212,123.531913 77.7031212,123.210223 L77.7031212,115.943863 C77.7031212,114.972496 76.9007934,114.329116 76.0984655,114.329116 L75.9354967,114.329116 L75.9354967,109.320817 C75.9354967,104.798235 72.2435048,101.083025 67.749185,101.083025 C67.109826,101.083025 66.4642088,101.247019 65.8248819,101.404715 C59.0866116,93.3309816 48.9759968,88.0010256 37.7434067,88.0010256 C17.5279539,87.8496431 1,104.476287 1,124.825325 C1,145.174363 17.5295586,161.799796 37.7434067,161.799796 C41.9180791,161.799796 45.9297184,160.992422 49.6152916,159.699333 L52.0222752,161.635737 C52.6616342,162.121421 53.4639621,162.121421 54.1096114,161.635737 L57.9582177,158.570302 L61.806824,161.635737 C62.446183,162.121421 63.2485108,162.121421 63.8941601,161.635737 L67.7427664,158.570302 L71.5913727,161.635737 C72.2307317,162.121421 73.0330596,162.121421 73.6787089,161.635737 L77.5273151,158.570302 L81.3759214,161.635737 C81.6956009,161.799731 82.0152805,161.957427 82.3412181,161.957427 C82.6608976,161.957427 82.9805772,161.793434 83.3065148,161.635737 L88.283515,157.762929 C88.4464838,157.598935 88.6031945,157.277245 88.7661634,156.955555 L88.7661634,156.791562 C88.9354064,156.476186 89.092101,156.148182 88.9354064,155.826492 L88.9357113,155.827203 Z M62.7782183,109.164252 C62.7782183,106.420474 65.0221689,104.155953 67.7552185,104.155953 C70.4818495,104.155953 72.7322187,106.414015 72.7322187,109.164252 L72.7322187,114.17255 L62.9412514,114.17255 L62.9349836,109.164252 L62.7782183,109.164252 Z M62.7782183,102.705265 C60.8539152,104.156018 59.5689069,106.578073 59.5689069,109.164252 L59.5689069,114.17255 L59.4059381,114.17255 C58.4406414,114.17255 57.8012823,114.979923 57.8012823,115.787297 L57.8012823,123.053657 L56.0398518,123.04735 L48.3362206,109.64366 L55.8768187,96.561628 C58.4468353,98.1826723 60.8538189,100.283135 62.7782183,102.705255 L62.7782183,102.705265 Z M53.150284,124.990384 L45.4466528,138.394074 L30.0393904,138.394074 L22.3420174,124.826488 L30.0456486,111.422798 L45.452911,111.422798 L53.1565422,124.826488 C53.1502728,124.662494 53.1502728,124.662494 53.1502728,124.990481 L53.1502728,124.990481 L53.150284,124.990384 Z M37.7430216,91.0807029 C43.1962836,91.0807029 48.4929312,92.5314559 52.987251,94.7959122 L45.4466528,107.877944 L30.0393904,107.877944 L22.4987923,94.7959122 C26.993112,92.5315528 32.2897596,91.0807029 37.7430216,91.0807029 Z M19.6088073,96.5682582 L27.1494055,109.65029 L19.4520324,123.211579 L4.36457793,123.211579 C4.84722628,111.908352 10.7832008,102.219872 19.6088073,96.5682582 L19.6088073,96.5682582 Z M4.36457793,126.441073 L19.4457743,126.441073 L27.1494055,139.844762 L19.6088073,152.926795 C10.7832008,147.268884 4.84725837,137.580403 4.36457793,126.441719 L4.36457793,126.441073 Z M46.5686281,156.635222 L46.5686281,156.799216 C46.5686281,156.963209 46.5686281,156.963209 46.7315969,157.120905 C43.8419329,157.928279 40.7956545,158.413962 37.7429574,158.413962 C32.2896954,158.413962 27.1496622,157.120905 22.4987281,154.698753 L30.0393262,141.616721 L45.4465886,141.616721 L49.2951949,148.397365 L46.5685639,155.827784 L46.5685639,156.635157 L46.5686281,156.635222 Z M48.3363168,139.845085 L56.039948,126.441396 L57.1619554,126.441396 L50.7433325,144.20361 L48.3363168,139.845085 Z M56.5163703,155.506837 L53.1440259,158.250615 L50.2543618,155.828494 L61.6499849,124.662268 L62.2893439,124.662268 L56.5163703,155.506837 Z M66.1443047,155.506837 L62.7719602,158.093015 L59.7256818,155.670895 L65.5050098,124.669373 L66.3073377,124.669373 L66.1443047,155.506837 Z M67.9119934,121.432451 L61.1737231,121.432451 L61.1737231,117.395585 L74.4936493,117.395585 L74.4936493,121.432451 L67.9119934,121.432451 Z M72.5629275,158.250292 L69.3536161,155.664113 L69.5165849,124.819221 L70.3189128,124.819221 L75.9352078,155.820744 L72.5629275,158.250292 Z M82.5167675,158.250292 L79.144423,155.506514 L73.691161,124.661622 L74.33052,124.661622 L85.5631101,155.827849 L82.5167675,158.250292 Z" id="Shape"></path>
                    <path d="M158.746265,148.420273 L151.009155,140.677454 C151.330224,140.034842 151.81497,139.549739 152.136039,138.900773 C157.940483,129.059999 161,118.576033 161,108.578171 C161,98.5803089 157.940483,88.0969883 152.136039,78.4200769 C150.360668,75.3583022 148.270707,72.4539385 146.010558,69.5495748 C142.787299,65.5175284 139.243004,61.9706179 135.856003,59.2301166 C131.021115,55.3619325 124.08982,55.3619325 119.254609,59.2301166 C115.867609,61.9706179 112.487055,65.5175284 109.263797,69.5495748 C107.167389,72.2900761 105.234723,75.3583022 103.459352,78.4200769 C101.041908,82.9372592 99.1092424,87.6118525 97.6549081,92.2928971 L73.1662,67.9425624 C78.3221247,61.4912882 81.2243468,53.5910577 81.2243468,45.1985951 C81.2243468,35.5216837 77.51631,26.4866741 70.748756,19.714449 L61.563758,10.5226734 C47.5438719,-3.50755781 24.6606689,-3.50755781 10.633047,10.5226734 C3.70175147,17.2952211 0,26.4869967 0,36.0068195 C0,45.6837309 3.70803683,54.7187405 10.4755908,61.4909656 L19.6605889,70.6827412 C26.7491794,77.7765623 35.9412686,81.1660618 45.1259443,81.1660618 C53.1840911,81.1660618 61.2422379,78.4255605 67.8531415,73.101969 L95.8922691,101.161786 C95.5712003,103.581014 95.4075232,106.164104 95.4075232,108.583332 C95.4075232,113.906924 96.2133379,119.387926 97.8249672,124.711518 C91.2147083,127.773293 86.7073033,134.388429 86.7073033,141.967064 C86.7073033,152.450384 95.2502282,161 105.726141,161 C110.239993,161 114.590103,159.387117 117.813362,156.646616 C118.455499,157.131719 118.940245,157.616823 119.588732,158.095636 C122.006176,160.029728 124.908399,161 127.810621,161 C130.712843,161 133.615065,160.029793 136.032509,158.095636 C138.128917,156.482818 140.225324,154.548726 142.15799,152.286909 L148.604507,158.738183 C150.05246,160.187204 151.827766,160.836138 153.760432,160.836138 C155.693098,160.836138 157.625764,160.029728 158.916357,158.738183 C161.642267,155.997682 161.642267,151.322927 158.746378,148.418725 L158.746265,148.420273 Z M21.9157096,68.421247 L12.8942919,59.2294714 C6.60523069,53.0994706 3.22451579,44.8779667 3.22451579,36.0081098 C3.22451579,27.2951801 6.60523069,19.0735149 12.8942919,12.9431915 C19.3408094,6.49191727 27.7199927,3.43014252 36.0985314,3.43014252 C44.3204197,3.26634466 52.6999254,6.49191727 59.1464429,12.9431915 L68.3314409,22.1349671 C74.4569217,28.2649679 77.8374755,36.4864718 77.8374755,45.3563287 C77.8374755,52.7778746 75.4200315,59.8716958 70.7488849,65.6810682 L69.9430702,64.874659 C79.7765879,52.4572463 78.9707733,34.3956138 67.3618847,22.7768689 L58.1768866,13.5850933 C45.9259249,1.32509173 25.9442995,1.16768064 13.5363651,13.4212955 L13.372688,13.5850933 C0.96443124,26.002506 0.96443124,46.1624154 13.372688,58.4230621 L22.557686,67.6148377 C27.3925741,72.4532934 33.1970184,75.357657 39.4797943,76.3214774 L39.8008631,76.3214774 C41.576234,76.6427831 43.3451584,76.806581 45.1205293,76.806581 C52.0518248,76.806581 58.9831203,74.5512155 64.6244677,70.0340333 L65.4302824,70.8404426 C52.5372476,81.0024898 33.8455703,80.1960805 21.9162898,68.4212147 L21.9157096,68.421247 Z M45.2843353,66.9722263 L41.5762984,63.2614533 L45.2843353,59.5506804 L48.9923721,63.2614533 L45.2843353,66.9722263 Z M47.2170012,73.5873629 C45.9264406,73.7511607 44.6358156,73.7511607 43.5089644,73.5873629 L45.4416303,71.6532709 L47.2170012,73.5873629 Z M36.9051519,38.9117638 L33.1971151,42.6225367 L29.4890783,38.9117638 L33.1971151,35.2009909 L36.9051519,38.9117638 Z M35.4571996,32.9393354 L39.3225315,29.0711513 L43.0305683,32.7819243 L39.1652365,36.6501083 L35.4571996,32.9393354 Z M39.1589511,41.3309916 L42.8669879,45.0417646 L39.1589511,48.7525375 L35.4571996,45.0354746 L39.1589511,41.3309916 Z M41.5763951,38.9117638 L45.441727,35.0435798 L49.1497638,38.7543527 L45.284432,42.6225367 L41.5763951,38.9117638 Z M51.4099128,41.1671293 L55.1179496,44.8779022 L51.2526178,48.7460863 L47.544581,45.0353133 L51.4099128,41.1671293 Z M53.6636153,38.9117638 L57.3716521,35.2009909 L61.079689,38.9117638 L57.3716521,42.6225367 L53.6636153,38.9117638 Z M51.4099128,36.6501083 L47.701876,32.9393354 L51.4099128,29.2285624 L55.1179496,32.9393354 L51.4099128,36.6501083 Z M45.284432,30.5201075 L41.5763951,26.8093346 L45.284432,23.0985616 L48.9924688,26.8093346 L45.284432,30.5201075 Z M39.3226926,24.3963967 L35.6146558,20.6856238 L39.3226926,16.9748508 L43.0307295,20.6856238 L39.3226926,24.3963967 Z M36.9052486,26.6517622 L33.0399168,30.5199463 L29.3318799,26.8091733 L33.1972118,22.9409893 L36.9052486,26.6517622 Z M30.7797677,32.9391741 L27.0717309,36.649947 L23.3636941,32.9391741 L27.0717309,29.2284012 L30.7797677,32.9391741 Z M20.9525354,30.5199463 L17.2444986,26.8091733 L20.9525354,23.0984004 L24.6605722,26.8091733 L20.9525354,30.5199463 Z M18.6925476,32.9391741 L14.9845107,36.649947 L11.2764739,32.9391741 L14.8270546,29.0709901 L18.6925476,32.9391741 Z M20.9525354,35.2008296 L24.6605722,38.9116025 L20.9525354,42.7797866 L17.2444986,39.0690136 L20.9525354,35.2008296 Z M27.0717309,41.3308304 L30.7797677,45.0416033 L27.0717309,48.7523763 L23.3636941,45.0416033 L27.0717309,41.3308304 Z M33.1972118,47.2969688 L36.9052486,51.0077417 L33.1972118,54.8759258 L29.489175,51.1651528 L33.1972118,47.2969688 Z M39.1589511,53.4269696 L42.8669879,57.1377425 L39.1589511,60.8485155 L35.4571996,57.1314525 L39.1589511,53.4269696 Z M41.5763951,51.1653141 L45.284432,47.4545412 L48.9924688,51.1653141 L45.284432,54.876087 L41.5763951,51.1653141 Z M51.4099128,53.4269696 L55.1179496,57.1377425 L51.4099128,60.8485155 L47.701876,57.1377425 L51.4099128,53.4269696 Z M53.6636153,51.1653141 L57.5289472,47.2971301 L61.236984,51.007903 L57.3716521,54.876087 L53.6636153,51.1653141 Z M59.7890962,45.0353133 L63.497133,41.3245404 L67.2051698,45.0353133 L63.497133,48.7460863 L59.7890962,45.0353133 Z M69.6226139,47.2969688 L73.0096141,50.6864683 C72.6885453,52.6205603 72.0401224,54.5546523 71.2342432,56.3313332 L65.914577,51.0077417 L69.6226139,47.2969688 Z M71.8763164,45.0353133 L73.4879457,43.4224948 L73.4879457,46.4842695 L71.8763164,45.0353133 Z M69.6226139,42.7799478 L65.914577,39.0691749 L71.2342432,33.7455834 C72.0400579,35.5222643 72.6821955,37.4563563 73.0096141,39.3904483 L69.6226139,42.7799478 Z M63.497133,36.649947 L59.7890962,32.9391741 L66.3993551,26.3240375 C67.6899157,27.6155503 68.6530576,29.0645388 69.6226139,30.6773573 L63.497133,36.649947 Z M57.3716521,30.5199463 L53.6636153,26.8091733 L60.2738743,20.1940367 L63.9819111,23.9048096 L57.3716521,30.5199463 Z M51.4099128,24.3962355 L47.701876,20.6854625 L54.312135,14.0703259 C54.9542726,14.5554295 55.6026955,15.1980409 56.2448009,15.8470068 L58.0201718,17.7810988 L51.4099128,24.3962355 Z M45.284432,18.423807 L41.5763951,14.555623 L46.5750248,9.55330496 C48.3503957,10.1959164 49.962025,11.1661235 51.5736544,12.1363952 L45.284432,18.423807 Z M39.1589511,12.3000962 L35.4571996,8.5893233 L36.4266914,7.61911617 C38.6803939,7.61911617 40.9405429,7.94042188 43.0369504,8.42552545 L39.1589511,12.3000962 Z M36.9052486,14.5554617 L33.1972118,18.2662347 L29.489175,14.5554617 L33.1972118,10.8446888 L36.9052486,14.5554617 Z M27.2354725,12.1362339 L24.98177,9.88086841 C26.7571409,9.07445912 28.6898068,8.58935556 30.4587312,8.10418748 L30.7798,8.42549319 L27.2354725,12.1362339 Z M27.0717954,16.8108272 L30.7798322,20.5216001 L26.9145004,24.3897842 L23.2064635,20.6790112 L27.0717954,16.8108272 Z M20.9525999,18.4236458 L17.2445631,14.7128728 C18.6925153,13.42136 20.1467852,12.4575073 21.7584146,11.4872357 L24.8179317,14.5553004 L20.9525999,18.4236458 Z M18.692612,20.6853012 L14.9845752,24.3960742 L11.7613165,21.1704371 C12.7308082,19.7214163 13.6939824,18.2660734 14.9845752,16.8171172 L18.692612,20.6853012 Z M12.5671312,26.815302 L8.85909434,30.526075 L8.21695674,29.8834635 C8.70170262,27.9493715 9.34384022,26.0152795 10.1496227,24.2385986 L12.5671312,26.815302 Z M8.8653797,35.2006683 L12.5734165,38.9114412 L8.38060159,43.10735 C7.89585571,40.8519845 7.57478691,38.7540301 7.57478691,36.4922134 L8.8653797,35.2006683 Z M14.827119,41.3306691 L18.5351558,45.041442 L12.0886384,51.4927163 C11.1191467,49.8798977 10.1559725,48.2670791 9.50745283,46.4903982 L14.827119,41.3306691 Z M20.9525999,47.2968075 L24.6606367,51.0075804 L17.7293412,58.1014016 L15.7966752,56.1673096 C15.1545376,55.5246982 14.5061147,54.8757967 14.0213043,54.2332176 L20.9525999,47.2968075 Z M27.0717954,53.4268083 L30.7798322,57.1375812 L23.8485367,64.0739913 L20.1404998,60.3632184 L27.0717954,53.4268083 Z M33.1972762,59.5505191 L36.9053131,63.261292 L30.6225372,69.5549939 C29.1745849,68.5847868 27.720315,67.6209019 26.2724272,66.3293568 L33.1972762,59.5505191 Z M39.1590156,65.6805199 L42.8670524,69.3912928 L39.1590156,73.1020658 C37.2263496,72.6169622 35.2936837,72.1318586 33.5183128,71.3253848 L39.1590156,65.6805199 Z M51.4099773,65.6805199 L56.8869385,71.1615225 C55.1115676,71.9679318 53.1789017,72.6105432 51.2462357,73.0956145 L47.5444843,69.3911315 L51.4099773,65.6805199 Z M53.6636798,63.261292 L57.3717166,59.5505191 L64.1392706,66.3230668 C62.84871,67.6145796 61.40079,68.5784323 59.7891606,69.5487039 L53.6636798,63.261292 Z M59.7891606,57.1312912 L63.4971975,53.4205183 L69.6226783,59.5505191 C68.6531866,61.1633376 67.6900124,62.6122938 66.3994196,63.9038389 L59.7891606,57.1312912 Z M96.3715354,97.2936991 L70.2647515,71.0031437 C70.4284285,70.8393458 70.5858203,70.8393458 70.5858203,70.681838 C70.7494973,70.5180401 70.7494973,70.3605323 70.9068891,70.3605323 L96.6929588,96.1656293 C96.5355735,96.486935 96.5355735,96.8082407 96.37189,97.2933442 L96.3715354,97.2936991 Z M121.193851,61.8116907 C124.901888,58.907327 130.057812,58.907327 133.765849,61.8116907 C136.347035,63.7457827 138.764479,66.3288729 141.181923,69.0693742 L113.777777,69.0693742 C116.195221,66.3288729 118.612665,63.7457827 121.193851,61.8116907 Z M111.360333,72.2950114 L143.913634,72.2950114 C145.204195,74.0716923 146.49482,75.8419219 147.778966,77.6186029 L107.815393,77.6186029 L111.360333,72.2950114 Z M105.71963,81.0012414 L149.554337,81.0012414 C154.710262,90.0360155 157.448742,99.5490645 157.448742,108.740518 C157.448742,117.932293 154.710262,127.452438 149.554337,136.479384 L123.610328,136.485684 C121.192884,128.742864 113.940552,123.097999 105.397304,123.097999 C103.785675,123.097999 102.174046,123.261797 100.726158,123.740611 C99.2782057,118.738293 98.472444,113.742426 98.472444,108.740108 C98.4661604,99.39076 101.047356,89.8717435 105.718502,81.0012414 L105.71963,81.0012414 Z M111.360398,156.646067 C109.584962,157.452477 107.652296,157.773782 105.555889,157.773782 C103.459481,157.773782 101.690557,157.288679 99.9151861,156.646067 L99.9151861,156.324762 L99.751509,142.937077 C99.751509,142.773279 99.751509,142.615772 99.5878319,142.451974 C99.5878319,142.288176 99.751509,142.130668 99.751509,141.96687 C99.751509,138.741233 102.332695,136.158143 105.555953,136.158143 C108.779212,136.158143 111.360398,138.741233 111.360398,141.96687 L111.360398,156.646067 Z M114.583592,154.869386 L114.583592,142.1307 C114.583592,137.128382 110.554518,132.938925 105.398594,132.938925 C100.399964,132.938925 96.2135957,136.970971 96.2135957,142.1307 C96.2135957,142.294498 96.2135957,142.452006 96.3772728,142.615804 C96.3772728,142.779602 96.2135957,142.937109 96.2135957,143.100907 L96.3772728,155.033184 C92.3481994,152.128821 89.6097188,147.454227 89.6097188,142.130636 C89.6097188,133.423996 96.6983094,126.487586 105.241234,126.487586 C113.784159,126.487586 120.87275,133.581407 120.87275,142.130636 C121.193819,147.290365 118.455306,151.965119 114.583689,154.869322 L114.583592,154.869386 Z M133.60243,155.675796 C130.058135,158.580159 124.90221,158.580159 121.351468,155.675796 C120.866722,155.35449 120.381976,154.869386 119.903516,154.384283 C121.351468,152.607602 122.641996,150.516099 123.447811,148.418144 L141.175734,148.418144 C138.600834,151.158646 136.18339,153.577873 133.602365,155.675828 L133.60243,155.675796 Z M124.096395,145.028613 C124.260072,144.058405 124.417464,143.094521 124.417464,141.966838 C124.417464,141.160429 124.417464,140.354019 124.253787,139.711472 L147.622413,139.711472 C146.495529,141.488153 145.204969,143.258383 143.757081,145.035064 L124.096395,145.028613 Z M156.486922,156.645906 C154.875293,158.258725 152.294107,158.258725 150.682478,156.645906 L144.078504,150.030769 C144.720642,149.22436 145.369065,148.581749 146.01117,147.775404 C147.138054,146.326383 148.264873,145.034903 149.234429,143.422084 L156.486761,150.679768 C157.940999,152.450158 157.940999,155.033087 156.486761,156.645906 L156.486922,156.645906 Z" id="Shape"></path>
                </g>
            </g>
        </g>
    </g>
</svg>