<?xml version="1.0" encoding="UTF-8"?>
<svg width="24px" height="25px" viewBox="0 0 24 25" version="1.1" xmlns="http://www.w3.org/2000/svg" xmlns:xlink="http://www.w3.org/1999/xlink">
    <!-- Generator: Sketch 63.1 (92452) - https://sketch.com -->
    <title>np_twitter-logo_285722_000000</title>
    <desc>Created with Sketch.</desc>
    <g id="Page-1" stroke="none" stroke-width="1" fill="none" fill-rule="evenodd">
        <g id="np_twitter-logo_285722_000000" fill-rule="nonzero">
            <path d="M24,12.846295 C24,12.2595928 23.5203399,11.779843 22.933827,11.779843 L20.0562562,11.779843 L20.0033013,11.779843 C19.2569234,13.7518069 18.4575981,15.5648777 17.6053256,16.3644609 C16.5931881,17.2709963 15.2602973,17.7507462 13.8754823,17.7507462 C12.4896442,17.7507462 11.1577766,17.2709963 10.145639,16.3644609 C9.13350145,15.4579255 8.54698858,14.1785924 8.54698858,12.846295 C8.54698858,11.5139975 9.13350145,10.2876289 10.145639,9.32812907 C11.1577766,8.42159367 13.7156173,7.56904612 16.3274284,6.8764152 L16.3264293,5.59708214 C16.3264293,2.50570173 13.2360462,0 9.39928514,0 C7.26809227,0 5.29574131,0.746618774 3.96387366,2.07891622 C2.95073854,3.09138041 2.41817053,4.31774908 2.47114341,5.59708214 L2.47114341,6.23674867 L1.56490045,5.75699877 C1.03235802,5.49012989 0.445845145,5.70402671 0.179062361,6.18378428 C-0.087720424,6.71649857 0.126107385,7.30320071 0.605710189,7.57006958 L1.3520881,8.0488216 L0.552762886,8.47560711 C0.0202204534,8.74247599 -0.13964459,9.38214252 0.126115058,9.86189241 C0.338935078,10.2346901 0.658657491,10.3946067 1.03235802,10.3946067 C1.19222306,10.3946067 1.3520881,10.3416346 1.51195315,10.2876621 L2.47114341,9.75494785 C2.52409838,11.5669952 2.52409838,13.1661615 2.52409838,13.2201494 C2.7369184,16.5254343 5.24180412,19.2969814 8.81178238,20.5763145 L8.81178238,22.282433 L7.95950986,23.2948972 C7.58683247,23.7216827 7.63977978,24.4143136 8.11937491,24.7871113 C8.33219493,24.9470279 8.54602274,25 8.75883508,25 C9.07856517,25 9.34534795,24.8930554 9.5581603,24.6272023 L10.6242683,23.2949049 C10.7841333,23.0820162 10.8370883,22.8681194 10.8370883,22.6552384 L10.8370883,21.1090364 C11.5834662,21.215981 12.328821,21.3219251 13.1281462,21.3219251 L13.1281462,22.2814249 L12.2758737,23.2938891 C11.9031963,23.7206746 11.9561436,24.4133055 12.4357388,24.7861032 C12.6485588,24.9460198 12.8623866,24.9989919 13.0751989,24.9989919 C13.394929,24.9989919 13.6617118,24.8920473 13.8745241,24.6261942 L14.9406321,23.2938968 C15.1004972,23.1339802 15.1534522,22.8671113 15.1534522,22.6542303 L15.1534522,21.1620162 C20.2701567,20.4693853 24,17.0041837 24,12.8463513 L24,12.846295 Z M6.2549152,5.80996316 C5.66840233,5.80996316 5.1888072,5.33021326 5.1888072,4.74351112 C5.1888072,4.15680898 5.66840233,3.67705908 6.2549152,3.67705908 C6.84142807,3.67705908 7.3210232,4.15680898 7.3210232,4.74351112 C7.3210232,5.33021326 6.84142807,5.80996316 6.2549152,5.80996316 Z" id="Shape" fill="#FFFFFF"></path>
            <path d="M11,12.3122435 C11,13.022713 11.3057076,13.6818087 11.8664975,14.1887304 C12.4779126,14.6956522 13.2421815,15 14.108679,15 C14.9751765,15 15.7394454,14.6956522 16.3508606,14.1887304 C17.0129009,13.5800348 18.0322521,11.1956522 19,8 C15.3315093,8.86264348 12.5801412,9.82608696 11.9181009,10.4347826 C11.305732,10.9426539 11,11.6017739 11,12.3122191 L11,12.3122435 Z" id="Path" fill="#000000"></path>
        </g>
    </g>
</svg>