<?xml version="1.0" encoding="UTF-8"?>
<svg width="38px" height="26px" viewBox="0 0 38 26" version="1.1" xmlns="http://www.w3.org/2000/svg" xmlns:xlink="http://www.w3.org/1999/xlink">
    <!-- Generator: Sketch 63.1 (92452) - https://sketch.com -->
    <title>np_view_1359798_000000</title>
    <desc>Created with Sketch.</desc>
    <g id="Page-1" stroke="none" stroke-width="1" fill="none" fill-rule="evenodd">
        <g id="np_view_1359798_000000" fill="#FFFFFF" fill-rule="nonzero">
            <path d="M19,0.000856338416 C15.0086549,-0.036054474 11.095569,1.12103154 7.76075941,3.3228048 C4.42423253,5.52461915 1.81281002,8.67184066 0.261935474,12.3676876 L0,13 L0.261935474,13.6323114 C1.81281002,17.3281994 4.4243143,20.4751333 7.76075941,22.6771941 C11.0956508,24.8790085 15.0089411,26.0360764 19,25.9991426 C22.9913451,26.0344483 26.904431,24.8773651 30.2408761,22.6755919 C33.577403,20.4721753 36.18719,17.3236802 37.7380645,13.6290658 L38,13 L37.7380645,12.3676876 C36.1855954,8.67340182 33.5756857,5.52486565 30.2392406,3.3228048 C26.9027137,1.12099046 22.9910589,-0.0344752348 19,0.000856338416 Z M19,21.9984145 L19,22 C16.6136631,22 14.323853,21.0518219 12.636868,19.363132 C10.9481781,17.6760659 10,15.3864181 10,13 C10,10.6135819 10.9481781,8.32385295 12.636868,6.63686796 C14.3239341,4.94817812 16.6135819,4 19,4 C21.3864181,4 23.676147,4.94817812 25.363132,6.63686796 C27.0518219,8.32393413 28,10.6135819 28,13 C27.9968286,15.3863369 27.0486152,17.6745234 25.361549,19.3615084 C23.6744828,21.0484934 21.3864181,21.9967933 19.0000406,22 L19,21.9984145 Z" id="Shape"></path>
        </g>
    </g>
</svg>