<?xml version="1.0" encoding="UTF-8" standalone="no"?>
<svg
   xmlns:dc="http://purl.org/dc/elements/1.1/"
   xmlns:cc="http://creativecommons.org/ns#"
   xmlns:rdf="http://www.w3.org/1999/02/22-rdf-syntax-ns#"
   xmlns:svg="http://www.w3.org/2000/svg"
   xmlns="http://www.w3.org/2000/svg"
   xmlns:sodipodi="http://sodipodi.sourceforge.net/DTD/sodipodi-0.dtd"
   xmlns:inkscape="http://www.inkscape.org/namespaces/inkscape"
   width="38px"
   height="26px"
   viewBox="0 0 38 26"
   version="1.1"
   id="svg9"
   sodipodi:docname="view.svg"
   inkscape:version="0.92.3 (2405546, 2018-03-11)">
  <metadata
     id="metadata15">
    <rdf:RDF>
      <cc:Work
         rdf:about="">
        <dc:format>image/svg+xml</dc:format>
        <dc:type
           rdf:resource="http://purl.org/dc/dcmitype/StillImage" />
      </cc:Work>
    </rdf:RDF>
  </metadata>
  <defs
     id="defs13" />
  <sodipodi:namedview
     pagecolor="#ffffff"
     bordercolor="#666666"
     borderopacity="1"
     objecttolerance="10"
     gridtolerance="10"
     guidetolerance="10"
     inkscape:pageopacity="0"
     inkscape:pageshadow="2"
     inkscape:window-width="1533"
     inkscape:window-height="845"
     id="namedview11"
     showgrid="false"
     showguides="true"
     inkscape:guide-bbox="true"
     inkscape:zoom="9"
     inkscape:cx="0.77777778"
     inkscape:cy="35.222222"
     inkscape:window-x="67"
     inkscape:window-y="27"
     inkscape:window-maximized="1"
     inkscape:current-layer="svg9">
    <sodipodi:guide
       position="38,-0.88888889"
       orientation="1,0"
       id="guide3733"
       inkscape:locked="false" />
  </sodipodi:namedview>
  <!-- Generator: Sketch 63.1 (92452) - https://sketch.com -->
  <title
     id="title2">np_view_1359798_000000</title>
  <circle
     style="fill:#ffd903;stroke-width:0.6081081;fill-opacity:1"
     id="path3723"
     cx="19"
     cy="13"
     r="12.5" />
  <desc
     id="desc4">Created with Sketch.</desc>
  <g
     id="Page-1"
     style="fill:#ffffff;fill-rule:evenodd;stroke:none;stroke-width:1"
     transform="matrix(0.51282051,0,0,0.51282051,9.2564103,6.3333333)">
    <g
       id="np_view_1359798_000000"
       style="fill:#ffffff;fill-rule:nonzero">
      <path
         d="M 19,8.5633842e-4 C 15.008655,-0.03605447 11.095569,1.1210315 7.7607594,3.3228048 4.4242325,5.5246192 1.81281,8.6718407 0.26193547,12.367688 L 0,13 0.26193547,13.632311 C 1.81281,17.328199 4.4243143,20.475133 7.7607594,22.677194 11.095651,24.879008 15.008941,26.036076 19,25.999143 c 3.991345,0.03531 7.904431,-1.121778 11.240876,-3.323551 3.336527,-2.203417 5.946314,-5.351912 7.497188,-9.046526 L 38,13 37.738064,12.367688 C 36.185595,8.6734018 33.575686,5.5248656 30.239241,3.3228048 26.902714,1.1209905 22.991059,-0.03447523 19,8.5633842e-4 Z M 19,21.998414 V 22 C 16.613663,22 14.323853,21.051822 12.636868,19.363132 10.948178,17.676066 10,15.386418 10,13 10,10.613582 10.948178,8.3238529 12.636868,6.636868 14.323934,4.9481781 16.613582,4 19,4 21.386418,4 23.676147,4.9481781 25.363132,6.636868 27.051822,8.3239341 28,10.613582 28,13 c -0.0032,2.386337 -0.951385,4.674523 -2.638451,6.361508 C 23.674483,21.048493 21.386418,21.996793 19.000041,22 Z"
         id="Shape"
         style="fill:#ffffff"
         inkscape:connector-curvature="0" />
    </g>
  </g>
</svg>
