<?xml version="1.0" encoding="UTF-8"?>
<svg width="36px" height="25px" viewBox="0 0 36 25" version="1.1" xmlns="http://www.w3.org/2000/svg" xmlns:xlink="http://www.w3.org/1999/xlink">
    <!-- Generator: Sketch 63.1 (92452) - https://sketch.com -->
    <title>np_youtube_897675_000000</title>
    <desc>Created with Sketch.</desc>
    <g id="Page-1" stroke="none" stroke-width="1" fill="none" fill-rule="evenodd">
        <g id="np_youtube_897675_000000" fill="#FFFFFF" fill-rule="nonzero">
            <path d="M29.9076923,0 L6.09230769,0 C2.72813538,0 0,2.73655556 0,6.11111111 L0,18.8888889 C0,22.2634444 2.72813538,25 6.09230769,25 L29.9076923,25 C33.2718646,25 36,22.2634444 36,18.8888889 L36,6.11111111 C36,2.73655556 33.2718646,0 29.9076923,0 Z M25.3060062,13.2377778 L14.5060062,18.7933333 C14.2485563,18.9278833 13.9392,18.9170333 13.6925169,18.7672917 C13.4437182,18.6153806 13.2922745,18.3462861 13.2922745,18.0555139 L13.2922745,6.94440278 C13.2922745,6.65360278 13.4437182,6.38451389 13.6925169,6.232625 C13.9391502,6.08288611 14.2485231,6.07203611 14.5060062,6.20658333 L25.3060062,11.7621389 C25.5829292,11.9032 25.7581717,12.1896556 25.7581717,12.5021389 C25.7581717,12.8146222 25.5829292,13.1010833 25.3060062,13.2443056 L25.3060062,13.2377778 Z" id="Shape"></path>
        </g>
    </g>
</svg>